<?xml version="1.0" encoding="UTF-8"?>
<svg version="1.1" viewBox="0 0 2048 950" width="7402" height="3436" xmlns="http://www.w3.org/2000/svg">
<path transform="translate(966)" d="m0 0h116v216h168l13 2 13 5 10 7 8 8 7 11 4 11 2 7v306h686l16 3 14 7 12 11 7 11 5 13 1 6v226l-4 1h-103l-8-1-1 4v-164h-134v141l-2 3h-113l-1-7v-137h-129v134l-1 11-1-2-15 1h-93l-5-1-1 4v-147h-130v107l-1 31-4-2h-109l-2 3-1-41v-455h-332v460l-1 39-1-3-113 1-1-1v-139h-131v143l-2 1h-107l-5-1-1 4-1-48v-99h-135v144h-116v-144h-128v160l-2 1h-108l-6-1v-226l3-12 7-14 11-12 13-8 13-4 8-1h687v-308l4-13 5-10 11-12 10-7 13-5 13-2h168z" fill="#CED1FF"/>
</svg>
